<svg width="40" height="40" viewBox="0 0 40 40" fill="none" xmlns="http://www.w3.org/2000/svg">
    <path  fill="#333333" fill-rule="evenodd" clip-rule="evenodd" d="M19.9998 3.3335C24.4811 3.3335 28.1362 6.87067 28.3255 11.3053L28.3332 11.6668V16.6668C31.0946 16.6668 33.3332 18.9054 33.3332 21.6668V31.6668C33.3332 34.4283 31.0946 36.6668 28.3332 36.6668H11.6665C8.90508 36.6668 6.6665 34.4283 6.6665 31.6668V21.6668C6.6665 18.9054 8.90508 16.6668 11.6665 16.6668V11.6668C11.6665 7.06446 15.3975 3.3335 19.9998 3.3335ZM28.3332 20.0002H11.6665C10.746 20.0002 9.99984 20.7464 9.99984 21.6668V31.6668C9.99984 32.5873 10.746 33.3335 11.6665 33.3335H28.3332C29.2536 33.3335 29.9998 32.5873 29.9998 31.6668V21.6668C29.9998 20.7464 29.2536 20.0002 28.3332 20.0002ZM20.2936 6.67532L19.9998 6.66683C17.337 6.66683 15.1604 8.74836 15.0083 11.373L14.9998 11.6668V16.6668H24.9998V11.6668C24.9998 9.00403 22.9183 6.82739 20.2936 6.67532L19.9998 6.66683L20.2936 6.67532Z"/>
</svg>
