<?xml version="1.0" encoding="UTF-8"?>
<svg width="30px" height="30px" viewBox="-4 -3 30 30" version="1.1" xmlns="http://www.w3.org/2000/svg" xmlns:xlink="http://www.w3.org/1999/xlink">
    <!-- Generator: Sketch 55.2 (78181) - https://sketchapp.com -->
    <title>icon</title>
    <desc>Created with Sketch.</desc>
    <defs>
        <path d="M21.825,22.45 C22.16875,22.45 22.45,22.17 22.45,21.825 L22.45,20.655 L17.59,15.795 L14.74625,18.39375 C14.7125,18.425 14.67,18.44125 14.63125,18.465 C14.6075,18.47875 14.585,18.49875 14.55875,18.51 C14.48375,18.54 14.40375,18.5575 14.325,18.5575 C14.245,18.5575 14.16625,18.54 14.09125,18.50875 C14.065,18.49875 14.04375,18.48 14.02125,18.46625 C13.98125,18.44375 13.93625,18.425 13.90125,18.3925 L7.745,12.73125 L2.45,18.02625 L2.45,21.825 C2.45,22.17 2.73125,22.45 3.075,22.45 L21.825,22.45 Z M3.075,2.45 C2.73125,2.45 2.45,2.73 2.45,3.075 L2.45,16.25875 L7.285,11.42375 C7.31375,11.395 7.35,11.38125 7.38125,11.36 C7.415,11.3375 7.445,11.30875 7.48,11.29375 C7.52125,11.27625 7.5625,11.2725 7.60375,11.265 C7.64,11.25625 7.67625,11.24375 7.71375,11.2425 C7.755,11.2425 7.79375,11.25375 7.83625,11.26125 C7.87375,11.26875 7.91125,11.27 7.9475,11.28375 C7.98625,11.2975 8.01625,11.32375 8.05,11.345 C8.085,11.365 8.12125,11.3775 8.15125,11.405 L14.3275,17.085 L17.18875,14.47 C17.21375,14.4475 17.24375,14.43875 17.27125,14.42125 C17.31125,14.395 17.34875,14.365 17.3925,14.34875 C17.42375,14.3375 17.455,14.33625 17.48625,14.33 C17.5325,14.32125 17.58,14.3075 17.6275,14.30875 C17.66375,14.31 17.69875,14.32375 17.735,14.33 C17.77625,14.33875 17.8175,14.3425 17.8575,14.36 C17.89625,14.3775 17.93,14.40625 17.965,14.43125 C17.995,14.4525 18.02625,14.46375 18.05125,14.48875 L22.45,18.8875 L22.45,10.745 C22.45,10.58 22.3825,10.41875 22.2675,10.3025 L14.5975,2.6325 C14.48125,2.51625 14.32,2.45 14.155,2.45 L3.075,2.45 Z M23.15125,9.41875 C23.505,9.7725 23.7,10.24375 23.7,10.745 L23.7,21.825 C23.7,22.85875 22.85875,23.7 21.825,23.7 L3.075,23.7 C2.04125,23.7 1.2,22.85875 1.2,21.825 L1.2,3.075 C1.2,2.04125 2.04125,1.2 3.075,1.2 L14.155,1.2 C14.65,1.2 15.1325,1.4 15.48125,1.74875 L23.15125,9.41875 Z M11.37575,10.094 C10.52575,9.50025 10.3195,8.3315 10.91325,7.48275 C11.50575,6.634 12.67575,6.4265 13.5245,7.02025 C14.37325,7.614 14.5795,8.78275 13.987,9.6315 C13.39325,10.48025 12.2245,10.68775 11.37575,10.094 Z" id="path-1"></path>
    </defs>
    <g id="Symbols" stroke="none" stroke-width="1" fill="none" fill-rule="evenodd">
        <g id="button-/-send-your-input-/-media-note-/-default" transform="translate(-16.000000, -16.000000)">
            <g id="icon" transform="translate(15.500000, 15.500000)">
                <mask id="mask-2" fill="#333">
                    <use xlink:href="#path-1"></use>
                </mask>
                <use id="Combined-Shape" fill="#333" xlink:href="#path-1"></use>
            </g>
        </g>
    </g>
</svg>