<?xml version="1.0" encoding="UTF-8"?>
<svg width="30px" height="30px" viewBox="-4 -3 30 30" version="1.1" xmlns="http://www.w3.org/2000/svg" xmlns:xlink="http://www.w3.org/1999/xlink">
    <!-- Generator: Sketch 55.2 (78181) - https://sketchapp.com -->
    <title>Combined Shape</title>
    <desc>Created with Sketch.</desc>
    <defs>
        <path d="M38,37.375 L38,26.295 C38,26.13 37.9325,25.96875 37.8175,25.8525 L30.1475,18.1825 C30.03125,18.06625 29.87,18 29.705,18 L18.625,18 C18.28125,18 18,18.28 18,18.625 L18,37.375 C18,37.72 18.28125,38 18.625,38 L37.375,38 C37.71875,38 38,37.72 38,37.375 Z M38.70125,24.96875 C39.055,25.3225 39.25,25.79375 39.25,26.295 L39.25,37.375 C39.25,38.40875 38.40875,39.25 37.375,39.25 L18.625,39.25 C17.59125,39.25 16.75,38.40875 16.75,37.375 L16.75,18.625 C16.75,17.59125 17.59125,16.75 18.625,16.75 L29.705,16.75 C30.2,16.75 30.6825,16.95 31.03125,17.29875 L38.70125,24.96875 Z M21.59375,25.357125 C21.24875,25.357125 20.96875,25.077125 20.96875,24.732125 C20.96875,24.387125 21.24875,24.107125 21.59375,24.107125 L26.59375,24.107125 C26.93875,24.107125 27.21875,24.387125 27.21875,24.732125 C27.21875,25.077125 26.93875,25.357125 26.59375,25.357125 L21.59375,25.357125 Z M21.59375,29.732125 C21.24875,29.732125 20.96875,29.452125 20.96875,29.107125 C20.96875,28.762125 21.24875,28.482125 21.59375,28.482125 L30.34375,28.482125 C30.68875,28.482125 30.96875,28.762125 30.96875,29.107125 C30.96875,29.452125 30.68875,29.732125 30.34375,29.732125 L21.59375,29.732125 Z M34.09375,32.857125 C34.43875,32.857125 34.71875,33.137125 34.71875,33.482125 C34.71875,33.827125 34.43875,34.107125 34.09375,34.107125 L21.59375,34.107125 C21.24875,34.107125 20.96875,33.827125 20.96875,33.482125 C20.96875,33.137125 21.24875,32.857125 21.59375,32.857125 L34.09375,32.857125 Z" id="path-1"></path>
    </defs>
    <g id="Symbols" stroke="none" stroke-width="1" fill="none" fill-rule="evenodd">
        <g id="button-/-main-menu-/-text-note" transform="translate(-16.000000, -16.000000)">
            <mask id="mask-2" fill="#333">
                <use xlink:href="#path-1"></use>
            </mask>
            <use id="Combined-Shape" fill="#333" xlink:href="#path-1"></use>
        </g>
    </g>
</svg>