<svg xmlns="http://www.w3.org/2000/svg" viewBox="0 0 1747.594 349.519">
  <defs>
    <style>
      .cls-1 {
        opacity: 0.963;
      }

      .cls-2 {
        fill: rgba(0,0,0,0);
      }

      .cls-3 {
        fill: #000;
      }
    </style>
  </defs>
  <g id="weframe_Logo_White_sRGB" class="cls-1" transform="translate(0 0)">
    <g id="Background">
      <rect id="Rechteck_9" data-name="Rechteck 9" class="cls-2" width="1747.594" height="349.519"/>
    </g>
    <g id="Layer_1" transform="translate(1.66 4.579)">
      <path id="Pfad_9" data-name="Pfad 9" class="cls-3" d="M881.6,183.06a39.9,39.9,0,1,1,39.88-39.915A39.951,39.951,0,0,1,881.6,183.06M1473.247,334.8l-43.672-158.559L1378.37,334.8h-61.743L1266,175.231,1221.943,334.8h-61.6L1230.8,114.31h66.758l49.649,153.456L1397.4,114.31h66.741L1534.606,334.8Zm-1231.932.07L190.932,181.418,141.038,334.874H74.717L.095,114.38H61.418l48.513,158.664L160.786,114.38h61.48l51.554,159.346L322.544,114.38h60.187l-74.64,220.494Zm393.663,0V165.3H593.334V114.38h41.645V85.545c0-25.812,6.955-47.272,20.115-62.022C668.655,8.3,688.892.262,713.6.262c25.6,0,46.294,5.924,66.95,19.206l-22.841,44.6C745.164,57.181,732.477,53.7,720.034,53.7c-18.227,0-27.472,10.94-27.472,32.523V114.38h67.02V165.3h-67.02V334.874Zm140.07,0V114.38h57.583l.018,220.494ZM484.284,157.7c-27.927,0-45.682,15.781-51.362,45.647l-.28,1.451H534.335l-.28-1.451c-5.662-29.447-23.33-45.647-49.771-45.647m3.46,182.921c-33.239,0-61.777-10.975-82.539-31.736-20.9-20.919-31.963-49.841-31.963-83.675,0-33.991,10.73-63.176,31.02-84.409,20.255-21.2,48.094-32.4,80.494-32.4,31.159,0,57.9,11.1,77.348,32.1,19.486,21.041,29.779,50.016,29.779,83.78a174.761,174.761,0,0,1-1.014,19.014H432.415l.28,1.451c2.918,15.728,9.891,27.822,20.744,35.965,9.839,7.392,22.893,11.289,37.748,11.289,19.643,0,40.072-7.619,56.255-20.919l33.571,36.857c-24.606,21.985-55.137,32.68-93.269,32.68m545.494-178.779c-17.249,0-32.086,6.344-42.869,18.35-10.241,11.394-15.885,27.123-15.885,44.319,0,17.179,5.645,32.907,15.885,44.3,10.783,12.006,25.62,18.367,42.869,18.367,16.777,0,31.893-6.361,42.519-17.93,10.468-11.342,16.235-27.245,16.235-44.738,0-17.511-5.767-33.4-16.235-44.756-10.625-11.552-25.742-17.913-42.519-17.913m-11.045,178.779c-29.465,0-56.517-11.779-76.178-33.169-19.66-21.408-30.5-50.872-30.5-82.941,0-32.086,10.835-61.55,30.5-82.941s46.713-33.169,76.178-33.169c27.647,0,49.772,10.136,65.762,30.146l2.185,2.744V114.38h56.22V334.874h-56.22V308.013l-2.185,2.691c-16.078,19.853-38.2,29.919-65.762,29.919M1636.77,157.7c-27.926,0-45.7,15.781-51.362,45.647l-.28,1.451h101.693l-.3-1.451c-5.645-29.447-23.313-45.647-49.754-45.647m3.46,182.921c-33.239,0-61.777-10.975-82.539-31.736-20.919-20.919-31.963-49.859-31.963-83.675,0-33.991,10.73-63.176,31.02-84.409,20.255-21.2,48.094-32.4,80.494-32.4,31.16,0,57.9,11.1,77.348,32.1,19.486,21.041,29.779,50.016,29.779,83.78a176.01,176.01,0,0,1-1.014,19.014H1584.9l.28,1.451c2.918,15.728,9.892,27.822,20.744,35.965,9.839,7.392,22.893,11.289,37.765,11.289,19.626,0,40.072-7.619,56.238-20.919l33.589,36.857c-24.623,21.985-55.154,32.68-93.286,32.68" transform="translate(-0.095 -0.262)"/>
    </g>
  </g>
</svg>
